#!OML:ASF I:\salsa\salsa 7_09\Patient 1\Session 1\dancermale.ASF
:FULLY-SPECIFIED
:DEGREES
1574
root 0.679106 17.0109 -0.453337 -17.324 89.2455 338.644
lowerback 0.101219 0.602861 0.824018
upperback 0.99018 0.803784 0.00285263
thorax 0.967753 0.410286 -0.452648
lowerneck -4.73344 -0.808659 0.988205
upperneck 18.071 -0.0469765 -4.60441
head 6.24285 -0.154683 -1.61528
rclavicle 1.1368e-015 3.18055e-015
rhumerus -49.8021 25.5366 -97.2733
rradius 78.5145
rwrist 22.5407
rhand -27.6112 17.0356
rfingers 7.12502
rthumb -1.01036 -12.9418
lclavicle 1.1368e-015 3.18055e-015
lhumerus -34.0978 -38.1545 122.057
lradius 85.0989
lwrist 17.8733
lhand -15.3873 44.5052
lfingers 7.12502
lthumb 10.7912 74.208
rfemur -11.9708 -2.11761 24.1237
rtibia 32.717
rfoot -23.8437 -18.1089
rtoes 5.37288
lfemur -29.6349 1.62152 -17.4227
ltibia 17.8567
lfoot -2.6573 -0.757891
ltoes -9.07241
1575
root 0.486401 17.0304 -0.420099 -13.2437 88.6294 342.614
lowerback 0.304556 0.577827 0.734316
upperback 0.971302 0.772528 0.0384602
thorax 0.832277 0.393318 -0.368664
lowerneck -4.96144 -0.734499 0.931742
upperneck 18.5074 0.0476389 -4.38422
head 6.42499 -0.0999756 -1.5341
rclavicle -3.71479e-015 -6.55989e-015
rhumerus -48.0574 25.395 -97.5174
rradius 79.0705
rwrist 22.8484
rhand -28.0526 17.4913
rfingers 7.12502
rthumb -1.43667 -12.4836
lclavicle -3.71479e-015 -6.55989e-015
lhumerus -35.5898 -36.4833 121.954
lradius 85.3942
lwrist 17.868
lhand -16.1395 44.7153
lfingers 7.12502
lthumb 10.0655 74.4546
rfemur -12.5278 -1.50637 24.5318
rtibia 32.0319
rfoot -23.1113 -18.0255
rtoes 7.10391
lfemur -30.2265 1.70786 -16.9819
ltibia 21.082
lfoot -5.29873 1.55247
ltoes -8.05537
1576
root 0.298042 17.0619 -0.419757 -15.122 87.9371 340.867
lowerback 0.733097 0.586611 1.21627
upperback 1.03324 0.790311 0.0128197
thorax 0.662773 0.405875 -0.669288
lowerneck -4.85676 -0.641875 1.41151
upperneck 18.4858 0.15585 -4.60472
head 6.40089 -0.0313554 -1.6772
rclavicle -2.17382e-015 -6.59095e-015
rhumerus -46.424 25.2541 -98.0403
rradius 79.7344
rwrist 22.5764
rhand -28.5294 17.4634
rfingers 7.12502
rthumb -1.89723 -12.5079
lclavicle -2.17382e-015 -6.59095e-015
lhumerus -37.126 -35.0034 121.741
lradius 85.6443
lwrist 18.2495
lhand -17.553 44.5512
lfingers 7.12502
lthumb 8.70168 74.3518
rfemur -13.0991 -1.11395 24.902
rtibia 31.7931
rfoot -22.4246 -17.6389
rtoes 8.49317
lfemur -30.6089 1.40182 -16.5107
ltibia 24.9661
lfoot -7.32174 4.69847
ltoes -7.24142
1577
root 0.11859 17.0938 -0.409604 -15.2794 87.2109 340.616
lowerback 0.799235 0.634646 1.4843
upperback 1.055 0.856339 0.0240345
thorax 0.653262 0.44096 -0.808635
lowerneck -4.95209 -0.552369 1.33523
upperneck 18.7438 0.230241 -4.21595
head 6.50301 0.0271116 -1.53749
rclavicle -1.53748e-016 2.23633e-015
rhumerus -44.89 24.9532 -98.7281
rradius 80.4247
rwrist 22.264
rhand -29.1179 17.3832
rfingers 7.12502
rthumb -2.46561 -12.5823
lclavicle -1.53748e-016 2.23633e-015
lhumerus -38.6745 -33.674 121.377
lradius 85.8658
lwrist 18.546
lhand -18.7086 44.6101
lfingers 7.12502
lthumb 7.58646 74.4541
rfemur -13.8324 -0.60247 25.2828
rtibia 31.5387
rfoot -21.7424 -17.2651
rtoes 9.27061
lfemur -31.2359 1.58064 -16.2016
ltibia 29.4361
lfoot -9.19536 7.23444
ltoes -3.96539
1578
root -0.0472702 17.1309 -0.38391 -13.528 86.4763 342.543
lowerback 0.844054 0.674013 1.2862
upperback 1.25035 0.908679 0.134549
thorax 0.824487 0.467979 -0.583655
lowerneck -4.91934 -0.43236 1.39669
upperneck 18.8215 0.357278 -4.03204
head 6.52594 0.106484 -1.48063
rclavicle 1.56698e-015 6.46671e-015
rhumerus -43.3459 24.7536 -99.4074
rradius 81.149
rwrist 22.1811
rhand -29.8913 17.552
rfingers 7.12502
rthumb -3.2125 -12.4035
lclavicle 1.56698e-015 6.46671e-015
lhumerus -39.9966 -32.339 120.738
lradius 86.0451
lwrist 18.5762
lhand -18.7995 44.9946
lfingers 7.12502
lthumb 7.49873 74.8417
rfemur -13.9065 -0.203555 25.538
rtibia 30.8164
rfoot -20.9026 -16.8066
rtoes 9.99657
lfemur -31.3478 2.23507 -16.0575
ltibia 34.1902
lfoot -9.85996 8.03826
ltoes -4.20455
1579
root -0.208781 17.1659 -0.357128 -12.3178 85.6783 343.964
lowerback 0.807776 0.736202 0.963944
upperback 1.50918 0.989872 0.33662
thorax 1.10233 0.507805 -0.193598
lowerneck -5.06765 -0.383557 1.28513
upperneck 18.918 0.432076 -3.99925
head 6.58531 0.134144 -1.44737
rclavicle -1.14084e-014 -5.72748e-015
rhumerus -41.8516 24.6986 -100.029
rradius 81.9753
rwrist 22.4712
rhand -30.4249 17.7467
rfingers 7.12502
rthumb -3.72776 -12.2005
lclavicle -1.14084e-014 -5.72748e-015
lhumerus -41.0786 -31.0722 119.904
lradius 86.0714
lwrist 18.3717
lhand -18.3711 45.1563
lfingers 7.12502
lthumb 7.91219 74.9882
rfemur -13.6981 0.0514615 25.7802
rtibia 29.7057
rfoot -19.9782 -16.1854
rtoes 11.0243
lfemur -31.3535 3.23879 -15.9367
ltibia 39.0877
lfoot -11.0179 7.86847
ltoes 0.267923
1580
root -0.366631 17.201 -0.336162 -13.7145 84.9859 342.843
lowerback 0.926095 0.805141 0.8912
upperback 1.71949 1.08295 0.571838
thorax 1.24661 0.554479 0.0882818
lowerneck -5.66748 -0.280113 1.34979
upperneck 19.7964 0.590966 -3.8808
head 6.97852 0.219469 -1.41584
rclavicle 1.09145e-014 7.30534e-015
rhumerus -40.6162 24.5212 -100.753
rradius 82.9759
rwrist 22.9018
rhand -30.5183 17.8586
rfingers 7.12502
rthumb -3.81798 -12.087
lclavicle 1.09145e-014 7.30534e-015
lhumerus -42.3375 -30.1181 119.186
lradius 86.1297
lwrist 18.3661
lhand -18.5295 45.0431
lfingers 7.12502
lthumb 7.75926 74.8808
rfemur -13.2636 0.194315 26.1775
rtibia 28.3574
rfoot -19.0503 -15.6374
rtoes 11.8992
lfemur -31.0254 4.17341 -15.7107
ltibia 43.4062
lfoot -11.5563 7.39569
ltoes 1.81188
1581
root -0.522359 17.2258 -0.324719 -15.8214 84.3763 340.791
lowerback 0.850018 0.873417 1.03751
upperback 1.84697 1.17198 0.798599
thorax 1.41875 0.601187 0.241506
lowerneck -6.09161 -0.268059 1.45866
upperneck 20.2274 0.642143 -4.03403
head 7.19571 0.234198 -1.48407
rclavicle 2.2239e-015 -9.54166e-015
rhumerus -39.5321 24.2774 -101.578
rradius 84.0989
rwrist 23.4719
rhand -30.3298 18.0902
rfingers 7.12502
rthumb -3.63596 -11.8585
lclavicle 2.2239e-015 -9.54166e-015
lhumerus -43.609 -29.3634 118.447
lradius 86.3068
lwrist 18.2139
lhand -18.8325 44.8996
lfingers 7.12502
lthumb 7.46684 74.7478
rfemur -13.1486 0.39472 26.6595
rtibia 27.1621
rfoot -18.3161 -15.1661
rtoes 12.7752
lfemur -31.0896 5.28011 -15.536
ltibia 48.5115
lfoot -12.1481 6.79627
ltoes 0.567482
1582
root -0.674961 17.2449 -0.316267 -16.3776 83.8075 340.426
lowerback 0.847968 0.91734 0.987154
upperback 2.01008 1.22953 1.01521
thorax 1.58169 0.629706 0.493791
lowerneck -6.40275 -0.218888 1.54793
upperneck 20.6168 0.737074 -4.13385
head 7.38177 0.274503 -1.52778
rclavicle 2.60905e-015 3.27995e-015
rhumerus -38.6413 24.3715 -102.593
rradius 85.2669
rwrist 23.6351
rhand -30.3613 18.1657
rfingers 7.12502
rthumb -3.66636 -11.7825
lclavicle 2.60905e-015 3.27995e-015
lhumerus -44.7355 -28.5083 117.518
lradius 86.5576
lwrist 17.4681
lhand -18.4747 44.7175
lfingers 7.12502
lthumb 7.81222 74.5531
rfemur -12.8589 0.854522 26.982
rtibia 25.9454
rfoot -17.7158 -14.7958
rtoes 13.5289
lfemur -30.5296 5.99345 -15.4626
ltibia 53.1799
lfoot -12.5426 6.57555
ltoes 2.33226
1583
root -0.821925 17.2578 -0.307767 -16.1875 83.2577 340.842
lowerback 0.825138 0.951851 0.782367
upperback 2.14918 1.27412 1.23788
thorax 1.72777 0.648545 0.839044
lowerneck -6.49663 -0.139062 1.41458
upperneck 20.7298 0.863956 -4.09761
head 7.43961 0.326724 -1.48405
rclavicle -4.89507e-015 6.85807e-015
rhumerus -38.1857 25.1878 -104.132
rradius 86.3846
rwrist 21.688
rhand -31.4113 17.7284
rfingers 7.12502
rthumb -4.68032 -12.1999
lclavicle -4.89507e-015 6.85807e-015
lhumerus -45.9854 -27.6342 116.607
lradius 86.8755
lwrist 16.6577
lhand -17.7283 44.4763
lfingers 7.12502
lthumb 8.53255 74.2839
rfemur -12.3913 1.46636 27.2186
rtibia 24.5402
rfoot -16.9095 -14.5938
rtoes 13.3629
lfemur -29.7115 6.60266 -15.4742
ltibia 57.5796
lfoot -12.8154 6.73042
ltoes 6.04475
1584
root -0.966186 17.2696 -0.30232 -17.2415 82.7144 339.953
lowerback 0.746718 0.990005 0.729429
upperback 2.24885 1.3222 1.51749
thorax 1.8662 0.670657 1.15869
lowerneck -6.9092 -0.0601583 1.00866
upperneck 21.3613 0.97788 -3.65874
head 7.72386 0.384914 -1.26619
rclavicle -2.16178e-015 -1.0138e-014
rhumerus -37.6819 25.9183 -105.492
rradius 87.4793
rwrist 20.8098
rhand -31.7597 17.5618
rfingers 7.12502
rthumb -5.01668 -12.3588
lclavicle -2.16178e-015 -1.0138e-014
lhumerus -47.3228 -26.8444 115.792
lradius 87.192
lwrist 16.2115
lhand -17.4282 44.3201
lfingers 7.12502
lthumb 8.82219 74.1157
rfemur -11.9348 1.93563 27.6039
rtibia 23.0464
rfoot -16.0886 -14.4662
rtoes 13.0028
lfemur -28.6691 7.1859 -15.3732
ltibia 61.3818
lfoot -12.3353 7.09924
ltoes 7.38648
